<svg width="101" height="95" viewBox="0 0 101 95" fill="none" xmlns="http://www.w3.org/2000/svg">
<path d="M25.5996 50.1989C39.1856 50.1989 50.1993 39.1853 50.1993 25.5993C50.1993 12.0133 39.1856 0.999634 25.5996 0.999634C12.0136 0.999634 1 12.0133 1 25.5993C1 39.1853 12.0136 50.1989 25.5996 50.1989Z" stroke="#231F20" stroke-width="2" stroke-miterlimit="10"/>
<path d="M74.7989 50.1989C88.3849 50.1989 99.3985 39.1853 99.3985 25.5993C99.3985 12.0133 88.3849 0.999634 74.7989 0.999634C61.2129 0.999634 50.1992 12.0133 50.1992 25.5993C50.1992 39.1853 61.2129 50.1989 74.7989 50.1989Z" stroke="#231F20" stroke-width="2" stroke-miterlimit="10"/>
<path d="M50.1993 93.3336C63.7853 93.3336 74.7989 82.3199 74.7989 68.7339C74.7989 55.1479 63.7853 44.1343 50.1993 44.1343C36.6132 44.1343 25.5996 55.1479 25.5996 68.7339C25.5996 82.3199 36.6132 93.3336 50.1993 93.3336Z" stroke="#231F20" stroke-width="2" stroke-miterlimit="10"/>
</svg>
