<svg width="101" height="99" viewBox="0 0 101 99" fill="none" xmlns="http://www.w3.org/2000/svg">
<path d="M50.1911 97.9023C61.0505 97.9023 69.8538 89.099 69.8538 78.2396C69.8538 67.3801 61.0505 58.5768 50.1911 58.5768C39.3316 58.5768 30.5283 67.3801 30.5283 78.2396C30.5283 89.099 39.3316 97.9023 50.1911 97.9023Z" stroke="#231F20" stroke-width="2" stroke-miterlimit="10"/>
<path d="M26.5094 86.4942C37.3689 86.4942 46.1722 77.6909 46.1722 66.8314C46.1722 55.972 37.3689 47.1687 26.5094 47.1687C15.65 47.1687 6.84668 55.972 6.84668 66.8314C6.84668 77.6909 15.65 86.4942 26.5094 86.4942Z" stroke="#231F20" stroke-width="2" stroke-miterlimit="10"/>
<path d="M20.6627 60.8682C31.5222 60.8682 40.3255 52.0648 40.3255 41.2054C40.3255 30.346 31.5222 21.5427 20.6627 21.5427C9.80331 21.5427 1 30.346 1 41.2054C1 52.0648 9.80331 60.8682 20.6627 60.8682Z" stroke="#231F20" stroke-width="2" stroke-miterlimit="10"/>
<path d="M37.0465 40.3255C47.906 40.3255 56.7093 31.5222 56.7093 20.6628C56.7093 9.80335 47.906 1 37.0465 1C26.1871 1 17.3838 9.80335 17.3838 20.6628C17.3838 31.5222 26.1871 40.3255 37.0465 40.3255Z" stroke="#231F20" stroke-width="2" stroke-miterlimit="10"/>
<path d="M63.3356 40.3255C74.195 40.3255 82.9983 31.5222 82.9983 20.6628C82.9983 9.80335 74.195 1 63.3356 1C52.4762 1 43.6729 9.80335 43.6729 20.6628C43.6729 31.5222 52.4762 40.3255 63.3356 40.3255Z" stroke="#231F20" stroke-width="2" stroke-miterlimit="10"/>
<path d="M79.7204 60.8682C90.5798 60.8682 99.3831 52.0648 99.3831 41.2054C99.3831 30.346 90.5798 21.5427 79.7204 21.5427C68.8609 21.5427 60.0576 30.346 60.0576 41.2054C60.0576 52.0648 68.8609 60.8682 79.7204 60.8682Z" stroke="#231F20" stroke-width="2" stroke-miterlimit="10"/>
<path d="M73.8727 86.4942C84.7321 86.4942 93.5355 77.6909 93.5355 66.8314C93.5355 55.972 84.7321 47.1687 73.8727 47.1687C63.0133 47.1687 54.21 55.972 54.21 66.8314C54.21 77.6909 63.0133 86.4942 73.8727 86.4942Z" stroke="#231F20" stroke-width="2" stroke-miterlimit="10"/>
</svg>
