<svg width="95" height="101" viewBox="0 0 95 101" fill="none" xmlns="http://www.w3.org/2000/svg">
<path d="M47.1596 62.3629L47.1519 62.3628C42.2193 62.2724 38.1474 66.1977 38.057 71.1303L37.7026 90.4658C37.6122 95.3984 41.5376 99.4703 46.4701 99.5607L46.4779 99.5608C51.4104 99.6512 55.4823 95.7259 55.5727 90.7933L55.9271 71.4578C56.0175 66.5252 52.0922 62.4533 47.1596 62.3629Z" stroke="#231F20" stroke-width="2" stroke-miterlimit="10"/>
<path d="M36.8832 56.168L36.8795 56.1612C34.4915 51.8443 29.0561 50.2806 24.7392 52.6686L7.81692 62.0294C3.49999 64.4174 1.9363 69.8528 4.32429 74.1697L4.32803 74.1765C6.71602 78.4934 12.1514 80.0572 16.4683 77.6692L33.3906 68.3083C37.7075 65.9203 39.2712 60.4849 36.8832 56.168Z" stroke="#231F20" stroke-width="2" stroke-miterlimit="10"/>
<path d="M37.1113 44.164L37.1153 44.1574C39.6599 39.9309 38.2964 34.4418 34.0698 31.8972L17.502 21.9226C13.2755 19.378 7.78642 20.7415 5.24185 24.968L5.23787 24.9746C2.69329 29.2012 4.0568 34.6902 8.28332 37.2348L24.8511 47.2095C29.0777 49.754 34.5667 48.3905 37.1113 44.164Z" stroke="#231F20" stroke-width="2" stroke-miterlimit="10"/>
<path d="M47.6236 38.3615L47.6313 38.3617C52.5639 38.4521 56.6358 34.5267 56.7262 29.5941L57.0806 10.2586C57.171 5.32606 53.2456 1.25417 48.3131 1.16376L48.3053 1.16362C43.3728 1.07322 39.3008 4.99853 39.2104 9.9311L38.8561 29.2666C38.7657 34.1992 42.691 38.2711 47.6236 38.3615Z" stroke="#231F20" stroke-width="2" stroke-miterlimit="10"/>
<path d="M57.9048 44.5609L57.9086 44.5676C60.2966 48.8845 65.732 50.4483 70.0489 48.0603L86.9711 38.6994C91.2881 36.3114 92.8518 30.876 90.4638 26.5591L90.4601 26.5523C88.0721 22.2354 82.6366 20.6717 78.3197 23.0597L61.3975 32.4205C57.0805 34.8085 55.5169 40.2439 57.9048 44.5609Z" stroke="#231F20" stroke-width="2" stroke-miterlimit="10"/>
<path d="M57.6729 56.5685L57.6689 56.5751C55.1243 60.8016 56.4878 66.2907 60.7143 68.8352L77.2822 78.8099C81.5087 81.3545 86.9978 79.991 89.5423 75.7645L89.5463 75.7578C92.0909 71.5313 90.7274 66.0423 86.5009 63.4977L69.933 53.523C65.7065 50.9785 60.2174 52.3419 57.6729 56.5685Z" stroke="#231F20" stroke-width="2" stroke-miterlimit="10"/>
</svg>
