<svg width="113" height="88" viewBox="0 0 113 88" fill="none" xmlns="http://www.w3.org/2000/svg">
<path d="M56.0343 75.9237L75.9216 56.0364C82.5762 49.3819 82.5761 38.5927 75.9216 31.9382L56.0343 12.0509C49.3797 5.39634 38.5906 5.39632 31.9361 12.0509L12.0488 31.9382C5.39423 38.5927 5.39421 49.3819 12.0487 56.0364L31.9361 75.9237C38.5906 82.5783 49.3798 82.5783 56.0343 75.9237Z" stroke="#231F20" stroke-width="2" stroke-miterlimit="10"/>
<path d="M80.5753 75.9215L100.463 56.0342C107.117 49.3797 107.117 38.5905 100.463 31.936L80.5753 12.0487C73.9208 5.39415 63.1316 5.39416 56.4771 12.0487L36.5898 31.936C29.9352 38.5905 29.9352 49.3797 36.5898 56.0342L56.4771 75.9215C63.1316 82.5761 73.9208 82.5761 80.5753 75.9215Z" stroke="#231F20" stroke-width="2" stroke-miterlimit="10"/>
</svg>
