<svg width="76" height="101" viewBox="0 0 76 101" fill="none" xmlns="http://www.w3.org/2000/svg">
<path d="M10.3853 60.582L27.5344 77.7311C33.2702 83.4668 42.5697 83.4668 48.3054 77.7311L65.4545 60.582C71.1903 54.8462 71.1902 45.5468 65.4545 39.811L48.3054 22.6619C42.5696 16.9262 33.2702 16.9262 27.5344 22.6619L10.3853 39.811C4.64959 45.5468 4.64957 54.8462 10.3853 60.582Z" stroke="#231F20" stroke-width="2" stroke-miterlimit="10"/>
<path d="M37.9147 99.3987C48.0542 99.3987 56.2738 91.1791 56.2738 81.0396C56.2738 70.9002 48.0542 62.6805 37.9147 62.6805C27.7753 62.6805 19.5557 70.9002 19.5557 81.0396C19.5557 91.1791 27.7753 99.3987 37.9147 99.3987Z" stroke="#231F20" stroke-width="2" stroke-miterlimit="10"/>
<path d="M37.9147 37.7184C48.0542 37.7184 56.2738 29.4988 56.2738 19.3593C56.2738 9.21988 48.0542 1.00024 37.9147 1.00024C27.7753 1.00024 19.5557 9.21988 19.5557 19.3593C19.5557 29.4988 27.7753 37.7184 37.9147 37.7184Z" stroke="#231F20" stroke-width="2" stroke-miterlimit="10"/>
</svg>
