<svg width="106" height="106" viewBox="0 0 106 106" fill="none" xmlns="http://www.w3.org/2000/svg">
<path d="M36.1465 89.0418L46.5811 99.4764C50.0695 102.965 55.7254 102.965 59.2138 99.4763L69.6484 89.0418C73.1368 85.5533 73.1368 79.8975 69.6484 76.4091L59.2138 65.9745C55.7254 62.4861 50.0695 62.486 46.5811 65.9745L36.1465 76.409C32.6581 79.8975 32.6581 85.5534 36.1465 89.0418Z" stroke="#231F20" stroke-width="2" stroke-miterlimit="10"/>
<path d="M15.4902 66.6167L15.4902 81.3734C15.4902 86.3068 19.4896 90.3062 24.4229 90.3062H39.1797C44.113 90.3062 48.1124 86.3068 48.1124 81.3734V66.6167C48.1124 61.6833 44.113 57.6841 39.1797 57.6841H24.4229C19.4896 57.6841 15.4902 61.6833 15.4902 66.6167Z" stroke="#231F20" stroke-width="2" stroke-miterlimit="10"/>
<path d="M16.7509 36.1514L6.31638 46.586C2.82795 50.0744 2.82795 55.7303 6.31638 59.2187L16.7509 69.6533C20.2393 73.1417 25.8952 73.1417 29.3837 69.6533L39.8182 59.2187C43.3067 55.7303 43.3067 50.0744 39.8182 46.5859L29.3837 36.1514C25.8953 32.663 20.2394 32.663 16.7509 36.1514Z" stroke="#231F20" stroke-width="2" stroke-miterlimit="10"/>
<path d="M39.1796 15.4902H24.4229C19.4896 15.4902 15.4902 19.4896 15.4902 24.4229V39.1797C15.4902 44.113 19.4896 48.1124 24.4229 48.1124H39.1796C44.113 48.1124 48.1123 44.113 48.1123 39.1797V24.4229C48.1123 19.4896 44.113 15.4902 39.1796 15.4902Z" stroke="#231F20" stroke-width="2" stroke-miterlimit="10"/>
<path d="M69.6542 16.7508L59.2197 6.31623C55.7312 2.82779 50.0754 2.82779 46.587 6.31623L36.1524 16.7508C32.664 20.2392 32.6639 25.8951 36.1524 29.3835L46.5869 39.8181C50.0754 43.3065 55.7313 43.3065 59.2197 39.8181L69.6543 29.3835C73.1427 25.8951 73.1427 20.2392 69.6542 16.7508Z" stroke="#231F20" stroke-width="2" stroke-miterlimit="10"/>
<path d="M90.2998 39.1796V24.4229C90.2998 19.4896 86.3005 15.4902 81.3671 15.4902L66.6104 15.4902C61.677 15.4902 57.6777 19.4896 57.6777 24.4229V39.1796C57.6777 44.113 61.677 48.1123 66.6104 48.1123H81.3671C86.3005 48.1123 90.2998 44.113 90.2998 39.1796Z" stroke="#231F20" stroke-width="2" stroke-miterlimit="10"/>
<path d="M89.0421 69.6487L99.4766 59.2142C102.965 55.7258 102.965 50.0699 99.4766 46.5814L89.0421 36.1469C85.5536 32.6585 79.8977 32.6585 76.4093 36.1469L65.9748 46.5814C62.4863 50.0699 62.4863 55.7258 65.9748 59.2142L76.4093 69.6487C79.8977 73.1372 85.5536 73.1372 89.0421 69.6487Z" stroke="#231F20" stroke-width="2" stroke-miterlimit="10"/>
<path d="M66.6172 90.3062H81.3739C86.3073 90.3062 90.3066 86.3068 90.3066 81.3734V66.6167C90.3066 61.6833 86.3073 57.684 81.3739 57.684H66.6172C61.6838 57.684 57.6846 61.6833 57.6846 66.6167V81.3734C57.6846 86.3068 61.6838 90.3062 66.6172 90.3062Z" stroke="#231F20" stroke-width="2" stroke-miterlimit="10"/>
</svg>
