<svg width="99" height="102" viewBox="0 0 99 102" fill="none" xmlns="http://www.w3.org/2000/svg">
<path d="M64.5136 90.3852V100.398C43.7015 100.398 26.7617 83.4658 26.7617 62.646H36.7744C36.7744 77.9427 49.2169 90.3852 64.5136 90.3852Z" stroke="#231F20" stroke-width="2" stroke-miterlimit="10"/>
<path d="M15.0986 81.9156L5.57964 85.0089C-0.853755 65.215 10.0229 43.8707 29.8168 37.4373L32.91 46.9562C18.3616 51.6849 10.37 67.3595 15.0986 81.9079V81.9156Z" stroke="#231F20" stroke-width="2" stroke-miterlimit="10"/>
<path d="M7.88571 32.2919L2 24.1923C18.8395 11.958 42.498 15.7069 54.7322 32.5464L46.6326 38.4321C37.6459 26.059 20.2588 23.3052 7.88571 32.2919Z" stroke="#231F20" stroke-width="2" stroke-miterlimit="10"/>
<path d="M52.8506 10.0991L58.7363 1.99951C75.5758 14.2338 79.3247 37.8923 67.0905 54.7318L58.9909 48.846C67.9776 36.4729 65.2314 19.0935 52.8506 10.0991Z" stroke="#231F20" stroke-width="2" stroke-miterlimit="10"/>
<path d="M87.8476 46.0068L97.3666 49.1001C90.9332 68.894 69.5965 79.7706 49.7949 73.3372L52.8882 63.8183C67.4366 68.5469 83.1113 60.5553 87.8399 46.0068H87.8476Z" stroke="#231F20" stroke-width="2" stroke-miterlimit="10"/>
</svg>
