<svg width="102" height="102" viewBox="0 0 102 102" fill="none" xmlns="http://www.w3.org/2000/svg">
<path d="M29.5469 81.6155L38.2327 74.0944L40.3618 62.8013L51.2307 66.5656L62.0841 62.7627L64.2517 74.0481L72.9685 81.5383L64.2749 89.0594L62.1458 100.36L51.2846 96.5959L40.4312 100.399L38.2635 89.1057L29.5469 81.6155Z" stroke="#231F20" stroke-width="2" stroke-miterlimit="10"/>
<path d="M20.7833 29.5454L28.3044 38.2313L39.6053 40.3603L35.8409 51.2292L39.6438 62.0827L28.3506 64.2503L20.8605 72.967L13.3394 64.2734L2.03851 62.1444L5.81062 51.2832L2 40.4297L13.2931 38.2621L20.7833 29.5454Z" stroke="#231F20" stroke-width="2" stroke-miterlimit="10"/>
<path d="M72.8601 20.7826L64.1665 28.3037L62.0374 39.6046L51.1763 35.8402L40.3228 39.6431L38.1552 28.3499L29.4385 20.8598L38.1243 13.3387L40.2534 2.03783L51.1223 5.80994L61.9758 1.99927L64.1433 13.2924L72.8601 20.7826Z" stroke="#231F20" stroke-width="2" stroke-miterlimit="10"/>
<path d="M81.6155 72.8508L74.0945 64.165L62.8013 62.036L66.5657 51.1748L62.7627 40.3213L74.0481 38.1537L81.5384 29.437L89.0595 38.1229L100.36 40.2519L96.5959 51.1208L100.399 61.9743L89.1057 64.1419L81.6155 72.8508Z" stroke="#231F20" stroke-width="2" stroke-miterlimit="10"/>
</svg>
