<svg width="109" height="113" viewBox="0 0 109 113" fill="none" xmlns="http://www.w3.org/2000/svg">
<path d="M82.354 99.9453C89.2405 93.0588 84.6493 77.3025 72.0994 64.7525C59.5494 52.2026 43.7931 47.6114 36.9066 54.4979C30.0201 61.3844 34.6112 77.1408 47.1612 89.6907C59.7111 102.241 75.4675 106.832 82.354 99.9453Z" stroke="#231F20" stroke-width="2" stroke-miterlimit="10"/>
<path d="M40.1692 52.6384C57.3127 48.0449 69.1668 36.695 66.6462 27.2879C64.1256 17.8808 48.1847 13.9786 31.0411 18.5722C13.8976 23.1658 2.04338 34.5156 4.56401 43.9228C7.08465 53.3299 23.0256 57.232 40.1692 52.6384Z" stroke="#231F20" stroke-width="2" stroke-miterlimit="10"/>
<path d="M100.688 40.1693C105.282 23.0257 101.38 7.08474 91.9727 4.5641C82.5656 2.04347 71.2157 13.8977 66.6221 31.0412C62.0285 48.1848 65.9307 64.1257 75.3378 66.6463C84.745 69.1669 96.0948 57.3128 100.688 40.1693Z" stroke="#231F20" stroke-width="2" stroke-miterlimit="10"/>
</svg>
