<svg width="103" height="101" viewBox="0 0 103 101" fill="none" xmlns="http://www.w3.org/2000/svg">
<path d="M51.7652 99.5904C61.2651 99.4876 68.8143 85.3695 68.6269 68.0568C68.4396 50.744 60.5866 36.7926 51.0868 36.8954C41.5869 36.9982 34.0376 51.1163 34.225 68.429C34.4123 85.7418 42.2654 99.6932 51.7652 99.5904Z" stroke="#231F20" stroke-width="2" stroke-miterlimit="10"/>
<path d="M44.6744 74.2883C59.5739 65.4696 67.7297 51.693 62.8908 43.5173C58.0518 35.3416 42.0506 35.8628 27.151 44.6814C12.2514 53.5 4.09559 67.2766 8.93455 75.4524C13.7735 83.6281 29.7748 83.1069 44.6744 74.2883Z" stroke="#231F20" stroke-width="2" stroke-miterlimit="10"/>
<path d="M63.0739 56.9916C67.7348 48.7131 59.2829 35.1161 44.1959 26.622C29.109 18.1279 13.1002 17.9532 8.43927 26.2317C3.77837 34.5102 12.2304 48.107 27.3173 56.6012C42.4043 65.0953 58.413 65.2701 63.0739 56.9916Z" stroke="#231F20" stroke-width="2" stroke-miterlimit="10"/>
<path d="M51.3863 63.8807C60.8862 63.7779 68.4354 49.6598 68.248 32.347C68.0607 15.0343 60.2077 1.08288 50.7079 1.18569C41.208 1.28849 33.6587 15.4066 33.8461 32.7193C34.0334 50.032 41.8865 63.9835 51.3863 63.8807Z" stroke="#231F20" stroke-width="2" stroke-miterlimit="10"/>
<path d="M75.4038 56.0996C90.3034 47.281 98.4591 33.5043 93.6202 25.3286C88.7812 17.1529 72.78 17.6741 57.8804 26.4927C42.9808 35.3113 34.8251 49.0879 39.664 57.2636C44.503 65.4393 60.5042 64.9182 75.4038 56.0996Z" stroke="#231F20" stroke-width="2" stroke-miterlimit="10"/>
<path d="M94.1814 74.5131C98.8423 66.2346 90.3903 52.6376 75.3033 44.1435C60.2164 35.6494 44.2076 35.4746 39.5467 43.7532C34.8858 52.0317 43.3378 65.6285 58.4248 74.1226C73.5117 82.6168 89.5205 82.7916 94.1814 74.5131Z" stroke="#231F20" stroke-width="2" stroke-miterlimit="10"/>
</svg>
