<svg width="104" height="102" viewBox="0 0 104 102" fill="none" xmlns="http://www.w3.org/2000/svg">
<path d="M43.1717 52.5545L42.3506 100.073L60.491 100.386L61.3121 52.868L43.1717 52.5545Z" stroke="#231F20" stroke-width="2" stroke-miterlimit="10"/>
<path d="M45.1825 44.7846L7.51855 73.7688L18.5835 88.1472L56.2474 59.163L45.1825 44.7846Z" stroke="#231F20" stroke-width="2" stroke-miterlimit="10"/>
<path d="M52.4864 41.5222L6.34277 30.1455L1.99966 47.7611L48.1433 59.1378L52.4864 41.5222Z" stroke="#231F20" stroke-width="2" stroke-miterlimit="10"/>
<path d="M59.5804 45.1707L39.7061 2.00049L23.2256 9.58764L43.0999 52.7579L59.5804 45.1707Z" stroke="#231F20" stroke-width="2" stroke-miterlimit="10"/>
<path d="M61.312 53.1043L82.666 10.6465L66.4575 2.49445L45.1034 44.9522L61.312 53.1043Z" stroke="#231F20" stroke-width="2" stroke-miterlimit="10"/>
<path d="M56.0583 59.2612L102.567 49.4856L98.8355 31.7305L52.3264 41.506L56.0583 59.2612Z" stroke="#231F20" stroke-width="2" stroke-miterlimit="10"/>
<path d="M47.9917 58.999L84.6318 89.2673L96.1869 75.2798L59.5468 45.0115L47.9917 58.999Z" stroke="#231F20" stroke-width="2" stroke-miterlimit="10"/>
</svg>
