<svg width="87" height="17" viewBox="0 0 87 17" fill="none" xmlns="http://www.w3.org/2000/svg">
<g style="mix-blend-mode:exclusion">
<g style="mix-blend-mode:exclusion" clip-path="url(#clip0_629_41397)">
<path d="M17.0005 0H0.000488281V17H17.0005V0Z" fill="#231F20"/>
<path d="M8.50056 14.7309C4.88284 14.7309 1.93652 11.7846 1.93652 8.16689C1.93652 4.54918 4.88284 1.60938 8.50056 1.60938C12.1183 1.60938 15.0646 4.55569 15.0646 8.17341C15.0646 11.7911 12.1183 14.7374 8.50056 14.7374V14.7309ZM8.50056 2.4698C5.35869 2.4698 2.80347 5.02502 2.80347 8.16689C2.80347 11.3088 5.35869 13.864 8.50056 13.864C11.6424 13.864 14.1976 11.3088 14.1976 8.16689C14.1976 5.02502 11.6424 2.4698 8.50056 2.4698Z" fill="white"/>
<path d="M13.0828 12.7489H3.91797V3.58398H13.0828V12.7489ZM4.78492 11.8819H12.2224V4.45093H4.78492V11.8884V11.8819Z" fill="white"/>
<path d="M12.6526 9.11719H4.34814V9.98414H12.6526V9.11719Z" fill="white"/>
<path d="M12.6526 6.34766H4.34814V7.2146H12.6526V6.34766Z" fill="white"/>
<path d="M10.3191 4.01367H9.45215V12.3181H10.3191V4.01367Z" fill="white"/>
<path d="M7.54859 4.01367H6.68164V12.3181H7.54859V4.01367Z" fill="white"/>
</g>
<g style="mix-blend-mode:exclusion" clip-path="url(#clip1_629_41397)">
<path d="M31.2809 16.7138C31.2809 16.9041 31.204 16.9763 31.0718 16.9763H28.5431C28.4109 16.9763 28.334 16.9041 28.334 16.7138L28.447 8.64245L28.334 0.571058C28.334 0.380832 28.4109 0.308594 28.5431 0.308594H31.0718C31.204 0.308594 31.2809 0.380832 31.2809 0.571058L31.168 8.64245L31.2809 16.7138Z" fill="white"/>
<path d="M35.4442 16.7138C35.4442 16.88 35.3673 16.9763 35.2351 16.9763H32.9347C32.8025 16.9763 32.7256 16.9041 32.7256 16.7138L32.8217 8.64245L32.7256 0.571058C32.7256 0.380832 32.8025 0.308594 32.9347 0.308594H36.0716C36.1845 0.308594 36.2614 0.356752 36.3191 0.49882L41.6626 12.2832L41.5496 7.87913V0.571058C41.5496 0.404911 41.6265 0.308594 41.7587 0.308594H44.0783C44.2105 0.308594 44.2874 0.380832 44.2874 0.571058L44.1913 8.64245L44.2874 16.7138C44.2874 16.9041 44.2105 16.9763 44.0783 16.9763H40.8069C40.6939 16.9763 40.617 16.9281 40.5593 16.7861L35.3312 5.09556L35.4442 10.2148V16.7138Z" fill="white"/>
<path d="M51.9288 16.7138C51.9288 16.9041 51.8519 16.9763 51.7197 16.9763H49.0756C48.9434 16.9763 48.8665 16.9041 48.8665 16.7138L49.0179 8.64245L48.9049 3.00066H45.2921C45.1599 3.00066 45.083 2.90434 45.083 2.7382V0.571058C45.083 0.404911 45.1599 0.308594 45.2921 0.308594H55.5223C55.6545 0.308594 55.7315 0.404911 55.7315 0.571058V2.7382C55.7315 2.90434 55.6545 3.00066 55.5223 3.00066H51.8903L51.7773 8.64245L51.9288 16.7138Z" fill="white"/>
<path d="M63.5655 0.310547H66.5124C66.6831 0.310547 66.7408 0.428536 66.6254 0.62117L62.4045 7.0961L67.6902 16.6676C67.7864 16.8579 67.7287 16.9783 67.558 16.9783H64.4596C64.3467 16.9783 64.2505 16.9301 64.1928 16.8121L62.6713 13.9539L60.5416 9.93024L59.419 11.6688L59.4767 16.7158C59.4767 16.906 59.3998 16.9783 59.2676 16.9783H56.7389C56.6067 16.9783 56.5298 16.906 56.5298 16.7158L56.6259 8.6444L56.5298 0.573012C56.5298 0.382785 56.6067 0.310547 56.7389 0.310547H59.2676C59.3998 0.310547 59.4767 0.382785 59.4767 0.573012L59.419 7.28633L63.3179 0.476694C63.3756 0.358706 63.4501 0.310547 63.5655 0.310547Z" fill="white"/>
<path d="M72.7476 17.0004H70.1612C70.029 17.0004 69.9521 16.9041 69.9713 16.7138C70.5794 11.7848 71.7597 6.76185 73.5072 3.00066H68.07C67.9378 3.00066 67.8608 2.90434 67.8608 2.7382V0.571058C67.8608 0.404911 67.9378 0.308594 68.07 0.308594H76.4349C76.5671 0.308594 76.644 0.404911 76.644 0.571058V2.90434C76.644 3.02474 76.6248 3.09457 76.5863 3.21497C74.971 7.16638 73.5432 11.6427 72.9543 16.762C72.9351 16.9281 72.8582 17.0004 72.7452 17.0004H72.7476Z" fill="white"/>
<path d="M86.4173 14.5463V16.7135C86.4173 16.8796 86.3404 16.9759 86.2082 16.9759H77.3673C77.2351 16.9759 77.1582 16.8796 77.1582 16.7135V14.6426C77.1582 7.99915 83.7372 8.61799 83.7372 5.11926C83.7949 3.52521 83.1098 2.57167 81.8743 2.59575C80.6965 2.61983 79.9345 3.69136 79.8768 5.68994C79.8768 5.85609 79.7999 5.95241 79.6677 5.95241H77.4442C77.312 5.95241 77.2351 5.85609 77.2351 5.68994C77.2544 2.0949 78.8144 0.0240793 81.8743 0C84.8405 0 86.3428 1.88059 86.4197 4.99887C86.4197 11.1656 79.86 10.8092 79.86 13.9997V14.2863H86.2106C86.3428 14.2863 86.4197 14.3826 86.4197 14.5487L86.4173 14.5463Z" fill="white"/>
</g>
</g>
<defs>
<clipPath id="clip0_629_41397">
<rect width="17" height="17" fill="white" transform="translate(0.000488281)"/>
</clipPath>
<clipPath id="clip1_629_41397">
<rect width="58.0833" height="17" fill="white" transform="translate(28.334)"/>
</clipPath>
</defs>
</svg>
