<svg width="255" height="248" viewBox="0 0 255 248" fill="none" xmlns="http://www.w3.org/2000/svg">
<path d="M252.76 40.3803L204.098 3L160.443 36.5355V34.5664C160.443 18.8015 147.688 5.97597 132.01 5.97597C116.332 5.97597 103.577 18.8015 103.577 34.5664V38.0864C97.3466 19.443 79.803 5.97597 59.1907 5.97597C33.378 5.97597 12.3781 27.092 12.3781 53.0475C12.3781 73.7657 25.7589 91.4023 44.2877 97.6709L4 167.84H29.8733L27.5032 180.369L6.30146 198.757L27.4992 217.144L32.736 244.817L59.1907 235.54L85.6414 244.817L90.8782 217.144L92.4368 215.792C100.593 224.335 114.963 229.775 132.01 229.775C158.699 229.775 178.822 216.438 178.822 198.753C178.822 187.506 170.678 178.018 157.887 172.598H179.88V245.82H229.778V151.677H200.024C204.26 133.728 220.334 120.334 239.464 120.334H250.911V78.455H241.055L252.76 40.3722V40.3803ZM173.8 100.119H184.067C180.587 103.318 177.381 106.814 174.49 110.569C173.42 108.876 172.16 107.273 170.691 105.799L154.269 89.287C158.129 84.4069 160.443 78.2357 160.443 71.5286V56.665L173.8 100.123V100.119ZM103.577 68.0086V71.5286C103.577 78.2357 105.89 84.4028 109.75 89.287L93.3291 105.799C89.6912 109.457 87.2807 113.891 86.0896 118.572L74.0937 97.675C87.9469 92.9857 98.9213 81.9425 103.581 68.0127L103.577 68.0086ZM114.381 167.84L112.472 164.515C114.244 166.281 116.21 167.771 118.322 168.981C107.36 171.051 98.2954 175.582 92.4368 181.721L90.8782 180.369L88.5081 167.84H114.381ZM145.698 168.981C147.846 167.75 149.848 166.232 151.641 164.429L157.322 158.717C157.298 159.509 157.286 160.3 157.286 161.1V172.359C153.745 170.909 149.856 169.768 145.693 168.985L145.698 168.981Z" stroke="#231F20" stroke-width="3.93791" stroke-miterlimit="10"/>
</svg>
