<svg width="223" height="222" viewBox="0 0 223 222" fill="none" xmlns="http://www.w3.org/2000/svg">
<path d="M199.394 219.427V148.217H172.206V219.427H199.394Z" stroke="#231F20" stroke-width="3.93791" stroke-miterlimit="10"/>
<path d="M39.1904 79.6733L3.58923 141.343H74.7915L39.1904 79.6733Z" stroke="#231F20" stroke-width="3.93791" stroke-miterlimit="10"/>
<path d="M112.498 203.358C132.16 203.358 148.099 194.611 148.099 183.822C148.099 173.032 132.16 164.286 112.498 164.286C92.8363 164.286 76.8971 173.032 76.8971 183.822C76.8971 194.611 92.8363 203.358 112.498 203.358Z" stroke="#231F20" stroke-width="3.93791" stroke-miterlimit="10"/>
<path d="M185.066 2.3252L149.465 29.5279L163.061 73.5393H207.067L220.667 29.5279L185.066 2.3252Z" stroke="#231F20" stroke-width="3.46683" stroke-miterlimit="10"/>
<path d="M39.1904 73.5394C58.8524 73.5394 74.7915 57.5985 74.7915 37.9344C74.7915 18.2703 58.8524 2.32935 39.1904 2.32935C19.5284 2.32935 3.58923 18.2703 3.58923 37.9344C3.58923 57.5985 19.5284 73.5394 39.1904 73.5394Z" stroke="#231F20" stroke-width="3.46683" stroke-miterlimit="10"/>
<path d="M112.498 2.3252H112.494C103.05 2.3252 95.3947 9.98171 95.3947 19.4265V56.4339C95.3947 65.8787 103.05 73.5353 112.494 73.5353H112.498C121.942 73.5353 129.598 65.8787 129.598 56.4339V19.4265C129.598 9.98171 121.942 2.3252 112.498 2.3252Z" stroke="#231F20" stroke-width="3.46683" stroke-miterlimit="10"/>
<path d="M143.288 98.8936L124.109 79.713C117.695 73.298 107.295 73.298 100.881 79.713L81.7025 98.8936C75.2883 105.309 75.2883 115.709 81.7025 122.124L100.881 141.305C107.295 147.72 117.695 147.72 124.109 141.305L143.288 122.124C149.702 115.709 149.702 105.309 143.288 98.8936Z" stroke="#231F20" stroke-width="3.93791" stroke-miterlimit="10"/>
<path d="M74.7915 183.822L60.5251 196.135L56.9971 214.659L39.1904 208.448L21.3837 214.659L17.8598 196.135L3.58923 183.822L17.8598 171.509L21.3837 152.985L39.1904 159.196L57.0011 152.985L60.5251 171.509L74.7915 183.822Z" stroke="#231F20" stroke-width="3.93791" stroke-miterlimit="10"/>
<path d="M168.345 146.115H149.461C149.461 106.852 181.404 74.9053 220.663 74.9053V93.7911C191.813 93.7911 168.341 117.266 168.341 146.119L168.345 146.115Z" stroke="#231F20" stroke-width="3.93791" stroke-miterlimit="10"/>
</svg>
