<svg width="258" height="247" viewBox="0 0 258 247" fill="none" xmlns="http://www.w3.org/2000/svg">
<path d="M253.596 40.2304L204.774 3L160.973 36.4046V34.4432C160.973 18.7398 148.175 5.96436 132.444 5.96436C116.713 5.96436 103.915 18.7398 103.915 34.4432V37.9495C97.6642 19.3788 80.0616 5.96436 59.3802 5.96436C33.4807 5.96436 12.4103 26.998 12.4103 52.8522C12.4103 73.4895 25.8361 91.0572 44.4271 97.3014L4 167.196H29.9602L27.5821 179.677L6.30919 197.993L27.5781 216.308L32.8325 243.873L59.3761 234.633L85.9156 243.873L91.1701 216.308L92.7338 214.962C100.917 223.471 115.336 228.89 132.44 228.89C159.218 228.89 179.41 215.605 179.41 197.988C179.41 186.786 171.238 177.335 158.404 171.936H180.471V244.872H230.536V151.097H200.683C204.932 133.217 221.06 119.876 240.255 119.876H251.74V78.1604H241.851L255.426 41.9061L253.596 40.2304Z" stroke="#231F20" stroke-width="3.94" stroke-miterlimit="10"/>
</svg>
