<svg width="255" height="248" viewBox="0 0 255 248" fill="none" xmlns="http://www.w3.org/2000/svg">
<path d="M229.782 245.821V151.681H179.884V245.821H229.782Z" stroke="#231F20" stroke-width="3.93791" stroke-miterlimit="10"/>
<path d="M218.335 234.312V163.191H191.327V234.312H218.335Z" stroke="#231F20" stroke-width="3.93791" stroke-miterlimit="10"/>
<path d="M4 167.835L59.1907 71.7175L114.381 167.835H4Z" stroke="#231F20" stroke-width="3.93791" stroke-miterlimit="10"/>
<path d="M59.1907 94.7332L23.8248 156.326H94.5565L59.1907 94.7332Z" stroke="#231F20" stroke-width="3.93791" stroke-miterlimit="10"/>
<path d="M132.01 229.773C105.321 229.773 85.1974 216.436 85.1974 198.751C85.1974 181.066 105.321 167.729 132.01 167.729C158.699 167.729 178.823 181.066 178.823 198.751C178.823 216.436 158.699 229.773 132.01 229.773Z" stroke="#231F20" stroke-width="3.93791" stroke-miterlimit="10"/>
<path d="M132.01 218.263C151.542 218.263 167.376 209.528 167.376 198.752C167.376 187.975 151.542 179.24 132.01 179.24C112.478 179.24 96.6442 187.975 96.6442 198.752C96.6442 209.528 112.478 218.263 132.01 218.263Z" stroke="#231F20" stroke-width="3.93791" stroke-miterlimit="10"/>
<path d="M173.8 100.112L155.441 40.3753L204.098 3L252.76 40.3753L234.401 100.112H173.8Z" stroke="#231F20" stroke-width="3.46683" stroke-miterlimit="10"/>
<path d="M204.098 17.4814L168.732 44.6502L182.242 88.6065H225.958L239.468 44.6502L204.098 17.4814Z" stroke="#231F20" stroke-width="3.46683" stroke-miterlimit="10"/>
<path d="M59.1907 100.112C33.3779 100.112 12.3781 78.9969 12.3781 53.042C12.3781 27.0872 33.3779 5.97583 59.1907 5.97583C85.0034 5.97583 106.003 27.0913 106.003 53.0461C106.003 79.0009 85.0034 100.116 59.1907 100.116V100.112Z" stroke="#231F20" stroke-width="3.46683" stroke-miterlimit="10"/>
<path d="M59.1908 88.6025C78.7228 88.6025 94.5566 72.6815 94.5566 53.042C94.5566 33.4024 78.7228 17.4814 59.1908 17.4814C39.6588 17.4814 23.825 33.4024 23.825 53.042C23.825 72.6815 39.6588 88.6025 59.1908 88.6025Z" stroke="#231F20" stroke-width="3.46683" stroke-miterlimit="10"/>
<path d="M132.01 100.112C116.332 100.112 103.577 87.2871 103.577 71.5225V34.5614C103.577 18.7968 116.332 5.97168 132.01 5.97168C147.688 5.97168 160.443 18.7968 160.443 34.5614V71.5225C160.443 87.2871 147.688 100.112 132.01 100.112Z" stroke="#231F20" stroke-width="3.46683" stroke-miterlimit="10"/>
<path d="M132.014 17.4814H132.01C122.629 17.4814 115.023 25.1284 115.023 34.5614V71.5225C115.023 80.9555 122.629 88.6025 132.01 88.6025H132.014C141.395 88.6025 149 80.9555 149 71.5225V34.5614C149 25.1284 141.395 17.4814 132.014 17.4814Z" stroke="#231F20" stroke-width="3.46683" stroke-miterlimit="10"/>
<path d="M132.01 172.597C124.593 172.597 117.624 169.695 112.379 164.421L93.3292 145.266C82.5042 134.382 82.5042 116.672 93.3292 105.788L112.379 86.6334C117.624 81.3596 124.593 78.4568 132.01 78.4568C139.427 78.4568 146.396 81.3596 151.641 86.6334L170.691 105.788C181.516 116.672 181.516 134.382 170.691 145.266L151.641 164.421C146.396 169.695 139.427 172.597 132.01 172.597Z" stroke="#231F20" stroke-width="3.93791" stroke-miterlimit="10"/>
<path d="M162.602 113.93L143.55 94.7734C137.178 88.3665 126.847 88.3665 120.476 94.7734L101.424 113.93C95.0519 120.337 95.0519 130.725 101.424 137.132L120.476 156.288C126.847 162.695 137.178 162.695 143.55 156.288L162.602 137.132C168.974 130.725 168.974 120.337 162.602 113.93Z" stroke="#231F20" stroke-width="3.93791" stroke-miterlimit="10"/>
<path d="M59.1907 235.533L32.7359 244.81L27.5031 217.138L6.30139 198.751L27.5031 180.36L32.74 152.691L59.1907 161.968L85.6454 152.691L90.8782 180.36L112.08 198.751L90.8782 217.138L85.6414 244.81L59.1907 235.533Z" stroke="#231F20" stroke-width="3.93791" stroke-miterlimit="10"/>
<path d="M94.5566 198.751L80.3804 211.044L76.8798 229.549L59.1908 223.346L41.5018 229.549L38.0012 211.044L23.825 198.751L38.0012 186.454L41.5018 167.953L59.1908 174.156L76.8798 167.953L80.3804 186.454L94.5566 198.751Z" stroke="#231F20" stroke-width="3.93791" stroke-miterlimit="10"/>
<path d="M157.29 172.597V161.088C157.29 115.524 194.153 78.4568 239.468 78.4568H250.915V120.334H239.468C217.12 120.334 198.938 138.616 198.938 161.088V172.597H157.29Z" stroke="#231F20" stroke-width="3.93791" stroke-miterlimit="10"/>
<path d="M187.491 161.092H168.732C168.732 121.877 200.464 89.9707 239.464 89.9707V108.833C210.805 108.833 187.487 132.279 187.487 161.096L187.491 161.092Z" stroke="#231F20" stroke-width="3.93791" stroke-miterlimit="10"/>
</svg>
