<svg width="224" height="223" viewBox="0 0 224 223" fill="none" xmlns="http://www.w3.org/2000/svg">
<path d="M199.394 220.427V149.217H172.206V220.427H199.394Z" stroke="#231F20" stroke-width="3.93791" stroke-miterlimit="10"/>
<path d="M39.1904 80.6733L3.58923 142.343H74.7915L39.1904 80.6733Z" stroke="#231F20" stroke-width="3.93791" stroke-miterlimit="10"/>
<path d="M112.498 204.358C132.16 204.358 148.099 195.611 148.099 184.822C148.099 174.032 132.16 165.286 112.498 165.286C92.8363 165.286 76.8971 174.032 76.8971 184.822C76.8971 195.611 92.8363 204.358 112.498 204.358Z" stroke="#231F20" stroke-width="3.93791" stroke-miterlimit="10"/>
<path d="M185.066 3.3252L149.465 30.5279L163.061 74.5393H207.067L220.667 30.5279L185.066 3.3252Z" stroke="#231F20" stroke-width="3.46683" stroke-miterlimit="10"/>
<path d="M39.1904 74.5394C58.8524 74.5394 74.7915 58.5985 74.7915 38.9344C74.7915 19.2703 58.8524 3.32935 39.1904 3.32935C19.5284 3.32935 3.58923 19.2703 3.58923 38.9344C3.58923 58.5985 19.5284 74.5394 39.1904 74.5394Z" stroke="#231F20" stroke-width="3.46683" stroke-miterlimit="10"/>
<path d="M112.498 3.3252H112.494C103.05 3.3252 95.3947 10.9817 95.3947 20.4265V57.4339C95.3947 66.8787 103.05 74.5353 112.494 74.5353H112.498C121.942 74.5353 129.598 66.8787 129.598 57.4339V20.4265C129.598 10.9817 121.942 3.3252 112.498 3.3252Z" stroke="#231F20" stroke-width="3.46683" stroke-miterlimit="10"/>
<path d="M143.288 99.8936L124.109 80.713C117.695 74.298 107.295 74.298 100.881 80.713L81.7025 99.8936C75.2883 106.309 75.2883 116.709 81.7025 123.124L100.881 142.305C107.295 148.72 117.695 148.72 124.109 142.305L143.288 123.124C149.702 116.709 149.702 106.309 143.288 99.8936Z" stroke="#231F20" stroke-width="3.93791" stroke-miterlimit="10"/>
<path d="M74.7915 184.822L60.5251 197.135L56.9971 215.659L39.1904 209.448L21.3837 215.659L17.8598 197.135L3.58923 184.822L17.8598 172.509L21.3837 153.985L39.1904 160.196L57.0011 153.985L60.5251 172.509L74.7915 184.822Z" stroke="#231F20" stroke-width="3.93791" stroke-miterlimit="10"/>
<path d="M168.345 147.115H149.461C149.461 107.852 181.404 75.9053 220.663 75.9053V94.7911C191.813 94.7911 168.341 118.266 168.341 147.119L168.345 147.115Z" stroke="#231F20" stroke-width="3.93791" stroke-miterlimit="10"/>
<path d="M221.996 2H3V221.02H221.996V2Z" stroke="#231F20" stroke-width="3" stroke-miterlimit="10"/>
<path d="M3 148.013H221.996" stroke="#231F20" stroke-width="3" stroke-miterlimit="10"/>
<path d="M3 75.0068H221.996" stroke="#231F20" stroke-width="3" stroke-miterlimit="10"/>
<path d="M148.998 2V221.02" stroke="#231F20" stroke-width="3" stroke-miterlimit="10"/>
<path d="M75.9988 2V221.02" stroke="#231F20" stroke-width="3" stroke-miterlimit="10"/>
</svg>
