<svg width="65" height="66" viewBox="0 0 65 66" fill="none" xmlns="http://www.w3.org/2000/svg">
<path d="M58.0027 3.88281H3.82324V58.8958H58.0027V3.88281Z" stroke="black" stroke-width="2" stroke-miterlimit="10"/>
<path d="M31.2383 4.27148V58.8962" stroke="black" stroke-width="2" stroke-miterlimit="10"/>
<path d="M35.2019 6.52346L31.2129 16.1074L40.6516 20.1578L44.6407 10.5739L35.2019 6.52346Z" stroke="black" stroke-width="2" stroke-miterlimit="10"/>
<path d="M21.4705 24.7383L17.4814 34.3223L26.9202 38.3727L30.9092 28.7887L21.4705 24.7383Z" stroke="black" stroke-width="2" stroke-miterlimit="10"/>
<path d="M35.614 42.2266L31.625 51.8105L41.0637 55.8609L45.0528 46.277L35.614 42.2266Z" stroke="black" stroke-width="2" stroke-miterlimit="10"/>
<path d="M26.9387 6.56679L17.5 10.6172L21.489 20.2011L30.9278 16.1508L26.9387 6.56679Z" stroke="black" stroke-width="2" stroke-miterlimit="10"/>
<path d="M40.9573 24.8187L31.5186 28.8691L35.5076 38.4531L44.9463 34.4027L40.9573 24.8187Z" stroke="black" stroke-width="2" stroke-miterlimit="10"/>
<path d="M26.93 42.2641L17.4912 46.3145L21.4802 55.8984L30.919 51.848L26.93 42.2641Z" stroke="black" stroke-width="2" stroke-miterlimit="10"/>
</svg>
